<?xml version="1.0" encoding="utf-8"?>
<!-- Generator: Adobe Illustrator 27.6.0, SVG Export Plug-In . SVG Version: 6.00 Build 0)  -->
<svg version="1.1" id="Layer_1" xmlns="http://www.w3.org/2000/svg" xmlns:xlink="http://www.w3.org/1999/xlink" x="0px" y="0px"
	 viewBox="0 0 1080 380.9" style="enable-background:new 0 0 1080 380.9;" xml:space="preserve">
<path d="M388.8,47.9v5.8c-1.1-1.8-2.4-3.3-4-4.4c-2.1-1.4-4.5-2.1-7.3-2.1c-3,0-5.7,0.7-8.2,2.1c-2.5,1.4-4.5,3.4-6,5.9
	c-1.5,2.6-2.2,5.7-2.2,9.3c0,3.6,0.7,6.6,2.2,9.2c1.5,2.6,3.5,4.6,6,6c2.5,1.4,5.2,2.1,8.2,2.1c2.8,0,5.2-0.7,7.3-2.1
	c1.6-1.1,3-2.6,4-4.4v5.1c0,2.8-0.5,5.1-1.6,6.8c-1.1,1.8-2.4,3-4.1,3.9c-1.6,0.8-3.3,1.2-5,1.2c-2.2,0-4-0.4-5.6-1.3
	c-1.6-0.8-2.8-1.9-3.7-3.3c-0.9-1.4-1.3-2.8-1.3-4.4h-5.8c0,2.8,0.7,5.3,2.1,7.5c1.4,2.2,3.3,3.9,5.8,5.1c2.5,1.2,5.3,1.8,8.5,1.8
	c2.8,0,5.4-0.6,7.9-1.9c2.5-1.3,4.5-3.2,6.1-5.8c1.6-2.6,2.4-5.7,2.4-9.5V47.9H388.8z M387.2,71c-1.1,1.8-2.4,3.1-4,4
	c-1.6,0.9-3.3,1.4-5,1.4c-2,0-3.9-0.5-5.6-1.4c-1.7-0.9-3.1-2.3-4.1-4c-1-1.8-1.5-3.9-1.5-6.5s0.5-4.7,1.5-6.5c1-1.8,2.4-3.1,4.1-4
	c1.7-0.9,3.6-1.4,5.6-1.4c1.2,0,2.5,0.3,3.7,0.8c1.2,0.5,2.4,1.3,3.4,2.3c1,1,1.9,2.2,2.5,3.7c0.6,1.5,0.9,3.2,0.9,5.1
	C388.8,67,388.3,69.2,387.2,71z"/>
<path d="M421.1,47.7c-1-0.3-2.1-0.5-3.3-0.5c-1.5,0-3,0.6-4.5,1.8c-0.9,0.7-1.7,1.7-2.4,2.8v-3.8H405V81h5.8V60.9
	c0-1.6,0.2-3,0.5-4.2c0.3-1.2,0.9-2.2,1.7-3c0.8-0.7,1.9-1.1,3.4-1.1c1,0,1.8,0.1,2.4,0.4c0.6,0.3,1.3,0.7,2.1,1.3l3.2-4.8
	C423.1,48.6,422.1,48,421.1,47.7z"/>
<path d="M453,51.8c-1.1-1.5-2.6-2.6-4.5-3.4c-1.9-0.8-4.2-1.2-6.8-1.2c-3.1,0-5.7,0.5-7.9,1.4c-2.2,0.9-3.9,1.8-5.1,2.7l2.8,4.2
	c0.5-0.4,1.2-0.8,2.2-1.4c0.9-0.5,2-1,3.3-1.4c1.3-0.4,2.8-0.6,4.4-0.6c1,0,2,0.1,2.9,0.3c0.9,0.2,1.7,0.5,2.4,0.9
	c0.7,0.4,1.2,1,1.6,1.8c0.4,0.7,0.6,1.7,0.6,2.8v4.8c-0.9-0.6-2-1.1-3.4-1.6c-1.6-0.6-3.6-0.8-6-0.8c-4.1,0-7.3,1-9.5,2.9
	c-2.3,1.9-3.4,4.5-3.4,7.7c0,2.3,0.5,4.2,1.6,5.8c1.1,1.6,2.5,2.8,4.2,3.6c1.8,0.8,3.6,1.3,5.7,1.3c1.8,0,3.7-0.3,5.5-1
	c1.8-0.7,3.4-1.7,4.7-3.1c0.3-0.3,0.5-0.6,0.8-1V81h5.8V57.3C454.6,55.1,454.1,53.3,453,51.8z M447.6,72.7c-0.8,1.3-2,2.3-3.4,3.1
	c-1.4,0.7-3,1.1-4.8,1.1c-1.4,0-2.6-0.2-3.7-0.7s-1.9-1.1-2.5-2.1c-0.6-0.9-0.9-2-0.9-3.2c0-1.2,0.3-2.2,0.9-3.1
	c0.6-0.9,1.5-1.5,2.6-2c1.2-0.5,2.7-0.7,4.6-0.7c2,0,3.9,0.3,5.7,0.8c0.9,0.3,1.9,0.6,2.8,1.1v1.2C448.9,69.8,448.4,71.3,447.6,72.7
	z"/>
<path d="M483.8,54.7c-1.2-1.4-3-2.1-5.3-2.1c-1.7,0-3.2,0.3-4.4,1c-1.3,0.7-2.3,1.7-3,2.9c-0.7,1.2-1,2.7-1,4.3V81h-5.8V47.9h5.8
	v5.2c1.1-2,2.5-3.5,4.1-4.5c1.7-1,3.6-1.4,5.7-1.4c3.5,0,6.3,1.2,8.3,3.5c2,2.3,3.1,5.5,3.1,9.5V81h-5.8V60.9
	C485.6,58.1,485,56.1,483.8,54.7z"/>
<path d="M527,24.9v28.8c-1.1-1.8-2.4-3.3-4-4.4c-2.1-1.4-4.5-2.1-7.3-2.1c-3,0-5.7,0.7-8.2,2.1c-2.5,1.4-4.5,3.4-6,5.9
	c-1.5,2.6-2.2,5.7-2.2,9.3c0,3.6,0.7,6.6,2.2,9.2c1.5,2.6,3.5,4.6,6,6c2.5,1.4,5.2,2.1,8.2,2.1c2.8,0,5.2-0.7,7.3-2.1
	c1.6-1.1,3-2.6,4-4.4V81h5.8V24.9H527z M525.4,71c-1.1,1.8-2.4,3.1-4,4c-1.6,0.9-3.3,1.4-5,1.4c-2,0-3.9-0.5-5.6-1.4
	c-1.7-0.9-3.1-2.3-4.1-4c-1-1.8-1.5-3.9-1.5-6.5s0.5-4.7,1.5-6.5c1-1.8,2.4-3.1,4.1-4c1.7-0.9,3.6-1.4,5.6-1.4c1.7,0,3.3,0.5,5,1.4
	c1.6,0.9,3,2.3,4,4c1.1,1.8,1.6,3.9,1.6,6.5S526.5,69.2,525.4,71z"/>
<path d="M590.4,53c-0.9-1.9-2.3-3.4-4-4.3c-1.7-1-3.7-1.4-6-1.4c-2.3,0-4.3,0.6-6.1,1.8c-1.6,1.1-2.8,2.5-3.8,4.2V24.9h-5.8V81h5.8
	V60.9c0-1.6,0.3-3,1-4.2c0.7-1.2,1.7-2.2,3-3c1.3-0.7,2.7-1.1,4.4-1.1c2.4,0,4.1,0.7,5.3,2.1c1.2,1.4,1.8,3.5,1.8,6.2V81h5.8V60.2
	C591.8,57.3,591.3,54.9,590.4,53z"/>
<path d="M602,55.6c1.5-2.6,3.6-4.6,6.2-6.1c2.6-1.5,5.5-2.2,8.7-2.2c3.3,0,6.2,0.7,8.7,2.2c2.6,1.5,4.6,3.5,6.1,6.1
	c1.5,2.6,2.3,5.6,2.3,8.9c0,3.3-0.8,6.3-2.3,8.9c-1.5,2.6-3.6,4.7-6.1,6.2c-2.6,1.5-5.5,2.2-8.7,2.2c-3.2,0-6.1-0.7-8.7-2.2
	c-2.6-1.5-4.6-3.5-6.2-6.2c-1.5-2.6-2.3-5.6-2.3-8.9C599.7,61.1,600.5,58.1,602,55.6z M607,70.6c1,1.8,2.3,3.2,4,4.2
	c1.7,1,3.6,1.5,5.8,1.5s4.1-0.5,5.8-1.5c1.7-1,3-2.4,4-4.2c1-1.8,1.5-3.8,1.5-6.1c0-2.3-0.5-4.4-1.5-6.2c-1-1.8-2.3-3.2-4-4.2
	c-1.7-1-3.6-1.5-5.8-1.5s-4.1,0.5-5.8,1.5c-1.7,1-3,2.4-4,4.2c-1,1.8-1.5,3.9-1.5,6.2C605.5,66.8,606,68.8,607,70.6z"/>
<polygon points="653.4,47.9 648,47.9 648,36.4 642.3,36.4 642.3,47.9 636.9,47.9 636.9,53.3 642.3,53.3 642.3,81 648,81 648,53.3 
	653.4,53.3 "/>
<path d="M686.5,55.1c-1.2-2.5-3-4.5-5.4-5.9c-2.3-1.4-5.1-2.1-8.4-2.1c-3.3,0-6.1,0.7-8.6,2.2c-2.5,1.4-4.4,3.5-5.8,6
	s-2.1,5.6-2.1,9.1c0,3.4,0.7,6.4,2,9c1.3,2.6,3.2,4.6,5.5,6.1s5.1,2.2,8.2,2.2c3.6,0,6.6-0.7,9.3-2.1c2.6-1.4,4.8-3.5,6.5-6.3
	l-4.7-3c-1.2,2-2.7,3.5-4.4,4.5c-1.7,1-3.7,1.5-6,1.5s-4.2-0.5-5.8-1.4c-1.6-1-2.8-2.4-3.6-4.2c-0.6-1.4-1-3-1.2-4.8h26.1
	c0-0.1,0-0.3,0-0.7c0-0.4,0-0.7,0-1C688.3,60.7,687.7,57.7,686.5,55.1z M667.1,53.6c1.6-0.9,3.4-1.4,5.7-1.4c1.9,0,3.5,0.4,4.9,1.2
	c1.4,0.8,2.5,1.9,3.3,3.4c0.7,1.2,1,2.6,1.1,4.2h-19.6c0.2-1.2,0.6-2.4,1-3.3C664.3,55.9,665.5,54.6,667.1,53.6z"/>
<path d="M702,24.9V81h-5.8V24.9H702z"/>
<polygon points="93.1,154.9 93.1,131.5 42.1,131.5 33.6,131.5 14.8,131.5 14.8,249.3 33.6,249.3 42.1,249.3 93.1,249.3 93.1,225.9 
	42.1,225.9 42.1,198.8 89.7,198.8 89.7,175.9 42.1,175.9 42.1,154.9 "/>
<path d="M136.5,219c3,3.1,6.2,5.6,9.8,7.2s7.3,2.5,11.2,2.5c4.2,0,7.6-1,10.3-3.1c2.7-2.1,4-4.9,4-8.5c0-3-0.8-5.5-2.4-7.3
	c-1.6-1.9-4.1-3.6-7.6-5.3c-3.5-1.7-8.1-3.6-13.8-5.7c-2.8-1-6-2.4-9.7-4.2c-3.6-1.8-7.1-4.1-10.4-7c-3.3-2.9-6-6.3-8.1-10.4
	c-2.1-4.1-3.2-9.1-3.2-14.9c0-7,1.8-13,5.5-18c3.6-5.1,8.6-8.9,14.8-11.5c6.2-2.6,13.2-4,20.8-4c7.9,0,14.7,1.3,20.5,3.9
	c5.8,2.6,10.6,5.8,14.4,9.8c3.8,3.9,6.7,7.9,8.8,12l-21.7,12.1c-1.7-2.8-3.6-5.2-5.8-7.3c-2.2-2.1-4.6-3.7-7.2-4.9
	c-2.6-1.2-5.5-1.8-8.5-1.8c-4,0-7.1,0.9-9.3,2.6c-2.1,1.7-3.2,3.9-3.2,6.5c0,2.7,1,5.1,3.1,7.1c2.1,2,5.1,3.9,8.9,5.6
	c3.9,1.7,8.6,3.5,14.1,5.4c4.2,1.6,8,3.4,11.6,5.5c3.6,2.1,6.8,4.6,9.5,7.5c2.7,2.9,4.9,6.3,6.5,10.1c1.6,3.8,2.4,8.2,2.4,13.1
	c0,6-1.2,11.3-3.6,15.9c-2.4,4.7-5.7,8.6-9.8,11.7c-4.1,3.1-8.8,5.5-14,7.2s-10.6,2.4-16.1,2.4c-7.6,0-14.7-1.4-21.3-4.1
	c-6.6-2.7-12.3-6.5-17.1-11.2c-4.8-4.7-8.6-9.9-11.3-15.5l19.9-14.3C130.9,212.2,133.5,215.9,136.5,219z"/>
<path d="M302.1,149.3c-3.5-5.7-8.6-10.1-15.4-13.2c-6.8-3.1-15.2-4.6-25.2-4.6h-12.5h-10.6h-17.8v117.9h28.5v-40.9h12.5
	c10,0,18.4-1.5,25.2-4.6c6.8-3.1,11.9-7.5,15.4-13.3c3.5-5.8,5.2-12.6,5.2-20.5C307.3,162,305.6,155.1,302.1,149.3z M275,181.2
	c-3.3,2.6-7.7,3.9-13.5,3.9h-12.5v-30.1h12.5c5.7,0,10.2,1.3,13.5,3.9c3.3,2.6,4.9,6.3,4.9,11.3C279.9,174.9,278.3,178.6,275,181.2z
	"/>
<path d="M354.3,131.5v93.4h47.3v24.4h-75.8V131.5H354.3z"/>
<path d="M512.4,249.3h32.3l-62.1-125.3l-62,125.3h32.2l11-22.7h37.6L512.4,249.3z M495.7,204.9h-26.2l13.1-30.1L495.7,204.9z"/>
<path d="M672.5,131.5v123.7L591,183v66.3h-27.3V125.6l81.3,72.2v-66.3H672.5z"/>
<path d="M783.2,249.3h32.3l-62.1-125.3l-62,125.3h32.2l11-22.7h37.6L783.2,249.3z M766.5,204.9h-26.2l13.1-30.1L766.5,204.9z"/>
<path d="M931.6,159.1c-5.2-8.8-12.5-15.5-21.9-20.4c-9.4-4.8-20.6-7.2-33.5-7.2h-12.8H853h-18.9v117.9H853h10.4h12.8
	c12.9,0,24.1-2.4,33.5-7.2c9.4-4.8,16.7-11.6,21.9-20.5c5.2-8.8,7.7-19.2,7.7-31.2C939.3,178.3,936.7,167.9,931.6,159.1z M907,206.5
	c-1.9,4.3-4.5,7.8-7.7,10.4c-3.2,2.6-6.9,4.4-11.1,5.6c-4.2,1.1-8.6,1.7-13,1.7h-11.8v-67.3h11.8c4.5,0,8.8,0.6,13,1.7
	c4.2,1.1,7.9,3,11.1,5.6c3.2,2.6,5.8,6,7.7,10.4c1.9,4.3,2.9,9.7,2.9,16.1S908.9,202.2,907,206.5z"/>
<path d="M1031.7,249.3h32.3l-62.1-125.3l-62,125.3h32.2l11-22.7h37.6L1031.7,249.3z M1015,204.9h-26.2l13.1-30.1L1015,204.9z"/>
<polygon points="276.8,298.7 284.5,319.3 305.5,320.6 289.3,334.6 294.5,356 276.8,344.1 259.1,356 264.4,334.6 248.2,320.6 
	269.1,319.3 "/>
<polygon points="447.6,298.7 455.3,319.3 476.3,320.6 460.1,334.6 465.3,356 447.6,344.1 429.9,356 435.2,334.6 419,320.6 
	439.9,319.3 "/>
<polygon points="618.4,298.7 626.1,319.3 647.1,320.6 630.9,334.6 636.1,356 618.4,344.1 600.7,356 606,334.6 589.7,320.6 
	610.7,319.3 "/>
<polygon points="789.2,298.7 796.9,319.3 817.9,320.6 801.7,334.6 806.9,356 789.2,344.1 771.5,356 776.8,334.6 760.5,320.6 
	781.5,319.3 "/>
</svg>
