<?xml version="1.0" encoding="utf-8"?>
<!-- Generator: Adobe Illustrator 27.6.0, SVG Export Plug-In . SVG Version: 6.00 Build 0)  -->
<svg version="1.1" id="Layer_1" xmlns="http://www.w3.org/2000/svg" xmlns:xlink="http://www.w3.org/1999/xlink" x="0px" y="0px"
	 viewBox="0 0 1080 1080" style="enable-background:new 0 0 1080 1080;" xml:space="preserve">
<style type="text/css">
	.st0{fill:#FFFFFF;}
</style>
<g>
	<path class="st0" d="M531,318.6C638,338.2,755.4,285.9,828.1,188c-112.4,66.6-200.5,59.9-282.8,45.6
		C443.7,215.9,328,265.9,251.9,365.1C351.6,306.1,440.6,302,531,318.6z"/>
	<path class="st0" d="M531,652.8c107.1,19.6,224.4-32.7,297.1-130.6c-112.4,66.6-200.5,59.9-282.8,45.6
		C443.7,550.2,328,600.1,251.9,699.3C351.6,640.4,440.6,636.3,531,652.8z"/>
	<path class="st0" d="M470.9,483.1c96.3,18.3,190.6-23.9,233.2-93.3c-86.8,55.8-163.8,26.4-221.9,17.1
		c-76.7-12.2-165.8,19.1-230.3,94.4C333.1,460.1,400.5,469.7,470.9,483.1z"/>
	<path d="M540,0C295,0,96.4,198.6,96.4,443.6c0,0,0,0,0,0C96.4,711,269.8,885.5,540,1080c270.2-194.5,443.6-369,443.6-636.3
		c0,0,0,0,0,0C983.6,198.6,785,0,540,0z M545.3,233.6c82.3,14.3,170.3,21,282.8-45.6C755.4,285.9,638,338.2,531,318.6
		c-90.4-16.6-179.4-12.5-279.1,46.5C328,265.9,443.7,215.9,545.3,233.6z M482.2,407c58.1,9.3,135.1,38.7,221.9-17.1
		c-42.6,69.4-137,111.6-233.2,93.3c-70.4-13.4-137.8-23-219,18.3C316.4,426.1,405.5,394.8,482.2,407z M545.3,567.8
		c82.3,14.3,170.3,21,282.8-45.6C755.4,620.2,638,672.5,531,652.8c-90.4-16.6-179.4-12.5-279.1,46.5
		C328,600.1,443.7,550.2,545.3,567.8z"/>
</g>
</svg>
